<svg xmlns="http://www.w3.org/2000/svg" viewBox="93 27 209 348"><path d="m213.62 91.38c-2.84 4.67-3.29 9.55-3.25 14.41.15 15.15 2.72 29.91 7.71 44.24 1.24 3.56 3.21 6.25 6.57 8.14 6.84 3.87 12.61 8.86 16.2 16.1 3.37 6.81 3.64 13.59.32 20.46-4.46 9.24-9.25 18.34-13.25 27.77-1.67 3.95-2.03 8.58-2.38 12.94-.56 7.07-.72 14.19-.84 21.29-.05 3.21-.04 6.22-4.12 7.28.49 1.03.79 1.79 1.19 2.48 10.16 17.37 20.19 34.82 30.59 52.05 2.25 3.74 5.84 6.66 8.74 10.02 6.22 7.22 12.9 14.18 16.3 23.31 1.57 4.21 2.4 8.68 3.68 13.46-6.24.5-11.69 1.05-17.16 1.26-.88.03-2-1.3-2.69-2.25-14.36-19.7-28.69-39.42-42.95-59.19-1.26-1.75-2.54-2.01-4.65-2.17-8.6-.67-13.51 3.47-17.71 10.62-6.96 11.86-14.74 23.26-22.46 34.66-3.51 5.18-7.77 9.96-13.59 12.67-7.59 3.53-8.91 2.34-10.41-5.71-.4-2.16.05-4.72.82-6.83 2.38-6.47 5.69-12.3 10.38-17.61 18.44-20.89 30.92-44.96 36.31-72.39 2.23-11.34 1.62-22.8-1.78-33.96-.43-1.43-1.45-2.77-2.45-3.92-4.85-5.6-9.97-10.98-14.65-16.71-6.77-8.3-7.24-18.03-5.49-28.07.16-.91.99-1.85 1.76-2.49 9.73-8.18 14.37-18.91 14.46-31.3.11-14.93-.64-29.88-1.09-44.81-.08-2.83-3.59-4.5-6.46-2.93-2.49 1.37-4.88 3.02-7.07 4.83-16.69 13.76-33.34 27.55-49.93 41.43-2.23 1.87-4.52 2.93-7.4 3.03-2.86.11-5.72.36-8.55.73-1.97.26-3.04-.51-4.11-2.11-2.83-4.26-3.41-8.43-.89-13.11 2.79-5.17 5.98-9.75 10.78-13.45 22.12-17.01 43.9-34.42 66-51.41 4.93-3.79 5.87-8.55 5.49-13.94-.36-5.04 3-12.18 7.36-14.48 2.49-1.32 8.96 1.94 10.49 5.5.74 1.72.99 3.66 1.43 5.51.48 2.06.8 4.17 1.41 6.18 1.24 4.03 3.38 7.19 7.18 9.61 23.76 15.15 47.34 30.57 71.03 45.83 5.45 3.51 8.6 8.28 9.37 14.71.19 1.63-.04 2.66-1.59 3.66-4.62 2.99-9.34 4.06-14.37 1.3-10.39-5.7-20.79-11.41-31.08-17.28-11.04-6.3-21.95-12.79-33.2-19.36z"/></svg>
