<svg xmlns="http://www.w3.org/2000/svg" viewBox="134 27 128 348"><path d="m146.41 140c-4.52-4.86-4.62-10.93-.78-15.11 8.27-9.02 14.2-19.53 19.18-30.57 6.54-14.47 12.52-29.18 19.21-43.57 2.24-4.81 5.67-9.15 9.03-13.32 2.93-3.62 8.3-2.17 9.87 2.33.31.89.54 1.84.65 2.78.58 4.75 1.21 9.47 4.5 13.3.33.38.53.93.64 1.43 2.76 13.1 9.95 23.98 17.56 34.59 6.91 9.65 14.1 19.09 21.14 28.65 3.46 4.7 5.04 8.96 5.78 15.5-4.38-1.29-8.85-.69-12.64-4.09-7.34-6.59-15.06-12.76-24.57-16.08-5.51-1.92-6.24-1.43-7.85 4.23-1.93 6.82-1.28 13.65-.36 20.5.73 5.45.33 10.85-1.61 15.96-1.05 2.76-1.02 5.03.74 7.34 1.31 1.71 1.33 3.23.41 5.44-.83 1.99-.73 4.9.1 6.95 2.3 5.65 5.07 11.12 7.86 16.56 6.03 11.74 6.95 24.19 4.57 36.84-2.37 12.58-5.73 24.97-8.13 37.54-1.89 9.92-2.55 20.07-.84 30.06.78 4.55 2.71 9.2 5.24 13.08 5.84 8.94 12.24 17.53 18.66 26.07 5.94 7.9 10.72 16.26 12.41 26.13.19 1.13.27 2.27.45 3.84-5.37-1.8-10.37-3.43-15.32-5.2-.82-.29-1.47-1.17-2.11-1.86-8.86-9.45-17.24-19.26-23.36-30.8-.56-1.05-1.83-1.9-2.96-2.42-2.7-1.24-4.54-.18-6.37 2.17-7.74 9.96-15.74 19.72-23.55 29.63-1.3 1.65-2.71 2.43-4.78 2.49-4.21.13-8.42.42-12.61.64-1.01-5.14-.15-9.06 3.7-13.02 12.23-12.54 22.13-26.67 27.8-43.56 2.6-7.74 2.25-15.35 1.48-23.17-.62-6.32-1.14-12.69-1.09-19.04.04-5.81-1.3-11.08-3.96-16.14-.98-1.87-1.73-3.88-2.81-5.69-4.92-8.3-5.44-17.06-4.78-26.61.97-14.17 6.19-26.91 10.44-40.07 1.83-5.67 3.16-11.7 3.47-17.63.8-15.41-.63-30.71-4.29-45.74-.26-1.06-1.33-2.34-2.33-2.7-1.67-.6-3.48-1.22-5.18.7-5.7 6.42-11.35 12.92-17.48 18.92-4.66 4.61-10.01 8.48-15.13 12.72z"/></svg>
