<svg xmlns="http://www.w3.org/2000/svg" viewBox="130 26 134 348"><path d="m234.45 365.7c-4.83.31-7.9-1.24-9.58-5.74-4.4-11.79-9.2-23.43-13.61-35.21-4.36-11.63-11.29-21-22.5-27.14-5.49 6.76-11.37 13.17-13.07 22.12-1.07 5.61-3.93 10.12-8.41 13.72-6.97 5.6-12.23 12.49-15.26 21.01-.56 1.57-1.51 3.05-2.52 4.39-2.29 3.02-5.15 3.78-9.18 2.58 0-4.6-.07-9.26.06-13.92.03-.94.62-2.03 1.28-2.76 6.91-7.58 10.92-16.48 12.9-26.5 2.43-12.33 6.46-24.06 13.13-34.88 4.89-7.93 9.26-16.18 13.65-24.4.92-1.72 1.45-4 1.23-5.91-1.45-12.31-3.23-24.58-4.73-36.89-.27-2.25-1.39-3.44-3.01-4.79-3.48-2.9-6.89-5.95-9.95-9.29-3.03-3.3-3.91-7.53-3.11-11.91 1.07-5.86 2.58-11.58 6.86-16.12 1.6-1.69 2.8-3.8 4.51-5.33 5.87-5.26 7.5-11.79 7.65-19.5.32-16.53 1.41-33.05 2.18-49.57.02-.52 0-1.04 0-2.02-5.98 0-11.88-.09-17.77.09-.96.03-1.96 1.1-2.83 1.83-5.78 4.84-12.16 5.99-19.3 3.48-2.05-.72-3.19-1.69-3.33-3.95-.11-1.78-.65-3.53-1.08-5.72 4.23-1.49 8.55-2.82 12.69-4.55 2.88-1.2 5.76-2.64 8.24-4.51 7.61-5.75 15.08-11.7 22.47-17.74 1.23-1.01 2.3-2.77 2.56-4.33 1.4-8.36 2.51-16.77 3.73-25.15.1-.72.27-1.42.41-2.1 7.38-.55 11.95 2.68 13.72 9.44.53 2.04 1.23 4.06 2.03 6.01 1.9 4.65 4.9 8.13 9.6 10.45 8.17 4.03 16.85 5.4 25.76 6.26 9.63.93 16.69 10.11 15.63 20.15-13.74-.36-27.49-.7-41.23-1.1-6.68-.19-7.76.08-9.13 6.77-1.6 7.86-2.86 15.89-3.12 23.89-.4 12.59.21 25.21.32 37.82.03 2.92 1.18 4.81 3.75 6.38 3.06 1.86 5.94 4.12 8.57 6.55 12.68 11.74 15.34 23.82 9.22 40.32-1.3 3.5-3.09 6.26-6.64 7.97-3.71 1.78-7.24 3.99-10.67 6.28-1.04.69-2.01 2.21-2.12 3.44-1.39 15.09-2.69 30.2-3.79 45.32-.17 2.3.64 4.7 1.23 7 .33 1.31 1.16 2.49 1.71 3.75 4.18 9.74 9.05 18.87 16.58 26.74 8.13 8.5 13.75 18.79 15.63 30.72 1.38 8.91.59 17.71-1.36 26.55z"/></svg>
