<svg xmlns="http://www.w3.org/2000/svg" viewBox="102 27 192 348"><path d="m110.16 364.49c.44-5.38.73-10.33 1.35-15.24.13-1.04 1.43-1.99 2.3-2.87 16.48-16.49 33.2-32.76 49.4-49.53 8.77-9.09 16.15-19.43 21.29-31.07 1.53-3.47 1.98-7.52 2.43-11.36 1.3-11.26 2.74-22.53 3.33-33.84.29-5.61-1.07-11.33-1.92-16.97-.12-.82-1.48-1.66-2.45-2.11-7.66-3.57-15.78-3.74-23.97-2.91-5.58.57-11.12 1.55-16.71 1.98-9.16.71-16.96-4.4-19.91-12.86 9.76-7.75 20.58-10.86 32.92-7.5 7.82 2.13 15.69 3.55 23.85 2.14 2.95-.51 4.18-1.73 4.36-4.92 1.26-23.07 2.73-46.14 4.14-69.2.02-.41 0-.82 0-1.44-4.58-1.25-9.04-1.12-13.45.32-5.73 1.88-11.43 3.86-17.12 5.83-.78.27-1.52.7-2.21 1.17-12.6 8.73-26.6 13.8-41.74 15.86-.52.07-1.05.07-1.58.07-.2 0-.41-.1-1.02-.25-.54-2.68-1.3-5.53-1.57-8.43-.08-.82 1.12-2.05 2.03-2.64 21.21-13.65 42.89-26.48 65.58-37.55 2.76-1.35 5.53-2.69 8.15-4.29.91-.55 1.95-1.87 1.92-2.81-.17-5.56.1-11.29-1.15-16.64-2.21-9.42 1.38-15.55 7.98-21.19.59-.51 1.74-.67 2.57-.54 8.86 1.38 14.03 7.4 14.33 16.66.19 5.93 0 11.89.59 17.77.41 4.06 1.67 8.06 2.88 11.99 2.38 7.73 8.79 12.02 15.25 15.44 9.98 5.29 20.51 9.53 30.82 14.2 5.11 2.32 10.24 4.59 15.34 6.91 3.44 1.57 5.93 3.99 6.91 7.79.55 2.14-.12 3.35-2.26 4.03-4.58 1.45-9.02.52-13.44-.62-7.88-2.04-15.76-4.09-23.61-6.21-.98-.26-1.88-.93-2.73-1.52-7.17-5.03-15.11-7.94-23.79-9.08-5.17-.68-8.42 2.04-8.21 7.68.71 19.06.72 38.15.81 57.23.01 2.67.82 3.89 3.31 4.28 10.76 1.7 21.54 3.31 32.27 5.22 3.49.62 6.95 1.81 10.22 3.21 1.63.7 3.11 2.26 4.12 3.78 2.39 3.61 1.52 5.86-2.49 7.29-7.1 2.53-14.35 1.94-21.68 1.37-6.19-.48-12.44-.38-18.66-.38-2.48 0-3.37 1.32-3.47 4.05-.6 15.34-1.29 30.69-2.36 46-.54 7.84 1.19 15.15 3.53 22.42 1.55 4.82 3.04 9.72 6.8 13.45.3.29.56.66.72 1.04 4.71 11.18 13.11 19.63 20.92 28.55 7 8.01 12.8 16.85 17.63 26.35 1.43 2.82 3.2 5.53 5.22 7.96 3.44 4.12 4.21 8.64 2.85 14.12-4.29-.4-8.68-.71-13.03-1.29-.86-.12-1.63-1.24-2.35-1.99-10.57-10.95-19.45-23.23-28.06-35.72-6.73-9.77-13.28-19.67-20.08-29.39-1.41-2.02-3.3-3.95-5.4-5.19-5.55-3.28-8.83-2.49-13.07 2.2-14.93 16.51-29.7 33.17-44.96 49.38-7.58 8.05-16.55 14.56-27.25 18.19-1.99.65-4.05 1.02-6.42 1.62z"/></svg>
