<svg xmlns="http://www.w3.org/2000/svg" viewBox="99 27 197 348"><path d="m145.69 365.92c1.79-7.23 2.65-14.86 5.56-21.61 7.45-17.29 15.63-34.28 23.89-51.2 4.04-8.27 8.98-16.09 13.35-24.2.91-1.68 1.5-3.75 1.52-5.65.14-10.71.13-21.42 0-32.13-.02-1.44-.58-3.18-1.5-4.25-12.32-14.37-14.93-30.65-9.68-48.48.34-1.16 1.16-2.24 1.95-3.19 8.29-9.98 11.58-21.4 10.41-34.29-.95-10.45-1.69-20.93-2.13-31.41-.14-3.32-2.03-4.45-4.42-5.26-.7-.24-2.05.67-2.77 1.39-15.06 14.95-30.57 29.4-47.64 42.06-7.24 5.37-14.9 10.06-23.73 13.52-1.11-2.61-2.37-5.04-3.11-7.61-.24-.83.69-2.25 1.43-3.07 14.89-16.41 29.75-32.86 44.83-49.09 3.32-3.57 5.29-7.38 6.16-12.11.45-2.47 1.64-5.03 3.15-7.05 11.26-15.01 22.73-29.86 33.99-44.86 1.56-2.07 2.89-2.23 4.64-.83 2.14 1.71 4.39 3.39 6.16 5.45 6.16 7.17 11.73 14.75 15.39 23.58 1.82 4.4 4.09 8.62 5.82 13.04.94 2.39 2.35 3.63 4.8 3.69 2.9.07 4.9 1.4 6.47 3.82 3.68 5.68 8.63 10.1 14.18 13.93 3.57 2.47 6.85 5.38 10.48 7.75 4.05 2.65 7.07 5.94 8.46 10.64 1.09 3.68 3.41 6.45 6.4 8.82 2.65 2.1 5.07 4.49 7.6 6.77-4.06 3.16-10.7 4.18-16.88 1.97-4.15-1.48-8.01-3.77-11.99-5.73-7.59-3.72-15.18-7.44-22.74-11.22-1.2-.6-2.37-1.37-3.34-2.29-5.28-5.02-11.48-7.84-19.45-8.18-.55 2.89-1.42 5.82-1.61 8.79-.98 14.9.45 29.65 3.38 44.24.36 1.8 1.57 3.72 2.93 4.99 7.55 7.04 11.54 15.6 11.42 25.94-.12 10.23-1.73 20.2-4.96 29.97-1.51 4.57-5.15 7.17-8.16 10.33-2 2.1-2.72 4-2.38 6.97 1.56 13.58 2.83 27.19 4.11 40.81.26 2.74 1.09 4.86 3.17 6.89 6.78 6.6 10.51 15.02 13.27 23.92 1.1 3.54 2.13 7.1 3.27 10.62 2.17 6.67 4.81 12.93 10.09 18.05 6.3 6.11 9.16 13.67 6.03 22.63-4.35.98-7.66.11-10.89-3.73-13.92-16.55-28.23-32.78-42.38-49.14-.47-.55-.82-1.21-1.6-2.39-2.13 3.23-4.1 5.6-5.42 8.3-9.2 18.8-23.18 33.53-39.29 46.45-2.16 1.73-4.77 2.89-7.18 4.31-.35-.23-.71-.45-1.06-.67z"/></svg>
