<svg xmlns="http://www.w3.org/2000/svg" viewBox="99 27 197 348"><path d="m112.72 365.33c-3.3-3.9-3.71-8.55-.54-11.81 15.34-15.72 27.01-34.28 40.38-51.52 7.52-9.7 16.26-18.45 23.96-28.02 3.86-4.8 6.66-10.46 9.87-15.77.42-.69.52-1.61.64-2.44 1.11-7.54.89-8.08-6.28-10.52-5.3-1.81-10.72-3.28-16.09-4.9-6.69-2.02-10.53-5.56-12.6-11.84.93-.49 1.91-1.04 2.91-1.54 8.22-4.15 16.39-8.44 24.72-12.36 2.82-1.33 4.08-3.25 4.19-6.06.28-6.66 1.02-13.38.5-19.99-1.02-12.97-2.76-25.88-4.25-38.81-.13-1.13-.61-2.23-1.04-3.73-4.65 1.88-9.26 2.78-13.28 6.31-12.94 11.36-27.06 21.1-43.12 27.7-.49.2-1 .36-1.5.52-9.14 2.96-9.58 2.78-14.33-6.29 6.23-5.02 12.43-10.27 18.89-15.18 11.56-8.79 23.36-17.24 34.85-26.11 3.91-3.02 7.16-6.91 10.75-10.36 8.28-7.97 11.19-18.11 11.18-29.13-.01-7.49-.71-15.02-1.6-22.47-1.36-11.33-.69-22.23 5.23-32.31 1.02-1.74 1.8-3.94 4.72-3.23 3.33.81 7.01 1.21 8.02 5.2 2.36 9.32 4.76 18.65 6.59 28.09.93 4.83 1.22 9.94.84 14.85-1.05 13.87.53 27.21 7.76 39.25 2.42 4.04 6.22 7.45 9.93 10.48 11.17 9.1 24.15 15.22 36.85 21.8 8.82 4.56 17.04 10.03 22.62 18.53 1.88 2.87 3.08 6.18 4.67 9.47-5.18 3.18-10.18 3.21-15.1 1.45-6.57-2.35-13.02-5.07-19.47-7.75-1.12-.47-1.98-1.54-3.01-2.27-6.71-4.78-13.21-9.93-20.23-14.21-6.06-3.69-12.97-5.06-20.32-3.94-1.89 6.07-1.7 12.12-.35 18.2 1.01 4.55 2.03 9.09 3.07 13.64.85 3.75.58 7.35-1.24 10.8-.44.84-.85 1.72-1.13 2.62-1.36 4.44-.06 7.75 4.2 9.35 5.73 2.16 11.59 3.98 17.44 5.81 6.54 2.04 10.15 6.37 10.42 13.05-.9.31-1.87.66-2.84.99-4.04 1.39-8.15 2.3-10.18 7.02-1.83 4.24-6.6 5.02-10.39 6.73-1.86.84-2.23 1.7-2.22 3.75.03 4.82-.65 9.64-.79 14.47-.06 1.9.11 4.04.93 5.7 3.62 7.31 7.49 14.48 11.32 21.68.59 1.11 1.31 2.19 2.12 3.15 13.8 16.38 27.62 32.75 41.45 49.1 5.21 6.16 7.45 15.91 5.31 24.14-4.87-1.76-9.75-3.44-14.55-5.33-.99-.39-1.76-1.47-2.5-2.34-18.42-21.91-36.85-43.83-55.19-65.8-1.42-1.7-2.67-1.95-4.84-1.66-7.74 1.03-13.46 4.96-18.86 10.48-14.32 14.62-28.9 29-43.81 43.01-7.75 7.28-16.42 13.6-24.68 20.35z"/></svg>
