<svg xmlns="http://www.w3.org/2000/svg" viewBox="25 59 347 283"><path d="m189.73 67.64c22.15 1.95 44.37 3.28 66.41 6.04 19.11 2.39 37.22 8.92 54.66 17.13 1.03.48 1.95 1.26 2.8 2.04 8.57 7.89 16.83 16.15 27.02 22.08 1.02.6 1.79 2.04 2.18 3.25 1.27 3.93 2.26 7.94 3.44 11.89 2.36 7.89 3.98 16.07 8.35 23.23 3.65 5.99 5.52 12.46 6.12 19.45.61 7.07 2.26 14.08 2.43 21.14.19 7.9-.67 15.84-1.28 23.75-.62 8.14-1.45 16.26-2.29 24.37-.18 1.75-.65 3.52-1.26 5.18-4.22 11.27-10.38 21.54-16.59 31.77-.72 1.19-1.95 2.22-3.16 2.95-14.69 8.87-29.49 17.57-44.1 26.57-2.94 1.81-5.53 2.4-8.49.88-2.98-1.53-5.43-.91-7.68 1.39-.58.6-1.35 1.03-2.03 1.53-12.16 9.11-12.18 8.99-27.09 11.37-19.66 3.14-39.28 6.55-58.93 9.71-1.57.25-3.77-.03-4.89-.98-4.31-3.65-9.07-5.19-14.63-4.39-.42.06-.85-.02-1.27.01-16.45 1.07-32.49-.83-48.18-6.09-2.61-.88-5.8.02-8.71-.03-1.73-.03-3.61.05-5.17-.55-18.33-7.11-32.6-19.5-44.53-34.79-3.9-5-7.43-10.31-10.97-15.58-4.36-6.47-7.47-13.32-7.9-21.4-.45-8.56-1.68-17.08-2.72-25.6-.22-1.82-.65-3.95-1.76-5.28-4.35-5.22-5.53-11.29-5.57-17.77-.1-20.32 2.32-40.38 6.54-60.23.27-1.29.95-2.59 1.75-3.65 11.01-14.66 21.68-29.61 33.36-43.73 3.76-4.54 9.99-7.29 15.47-10.11 9.66-4.97 20.41-5.96 31-7.6 10.34-1.6 20.57-3.98 30.86-5.94 2.89-.55 5.83-1.07 8.75-1.12 9.33-.14 18.66-.05 27.99-.05.02-.3.04-.57.07-.84zm3.57 22.68c-20.07-.74-36.1 1.29-51.9 5.29-26.6 6.74-48.89 20.89-68.3 39.93-1.29 1.26-2.35 3.01-2.89 4.73-3.6 11.35-5.97 22.96-6.67 34.86-2.53 42.83 7.79 81.49 37.33 113.81 1.08 1.18 2.6 2.2 4.11 2.72 11.32 3.88 22.68 7.63 34.05 11.37 1.39.46 2.87.77 4.33.87 18.08 1.15 36.19 1.92 54.23 3.48 8.66.75 16.73-.06 24.8-3.27 4.35-1.73 9.09-2.91 13.74-3.31 9.28-.79 18.62-.81 27.93-1.3 1.35-.07 2.81-.75 3.94-1.55 2.93-2.07 5.4-5.05 8.59-6.45 18.41-8.1 33.62-20.39 47.01-35.13.89-.98 1.59-2.25 2-3.5 4.19-12.72 7.09-25.7 8.2-39.08 2.6-31.53-5.65-59.73-25.49-84.52-5.52-6.89-12.71-12.57-15.87-21.26-.3-.82-1.5-1.53-2.44-1.87-6.64-2.45-13.16-5.41-20-7.05-26.43-6.33-53.5-7.13-76.7-8.77z"/><path d="m197.01 230.32c-3.39-.78-9.72-1.96-15.84-3.81-2.45-.74-4.58-2.82-6.63-4.54-3.88-3.25-7.41-6.97-11.47-9.97-3.05-2.26-4.86-4.98-4.47-8.54.56-5.12 1.72-10.19 2.74-15.25.15-.75.85-1.45 1.43-2.04 4.21-4.33 8.4-8.69 12.74-12.89 1.07-1.04 2.58-1.81 4.02-2.23 2.74-.79 5.63-1.05 8.36-1.87 9.35-2.79 18.86-2.22 27.84.46 10.12 3.02 17.78 10.08 23.47 19.04 4.12 6.48 5.51 13.44 3.32 20.96-1.37 4.7-3.54 8.49-8.24 10.97-10.75 5.68-22 9.2-37.27 9.71z"/></svg>
