<svg xmlns="http://www.w3.org/2000/svg" viewBox="24 40 348 323"><path d="m160.47 49.06c18.93.41 40 2.76 60.84 6.69 26.01 4.91 52.07 9.96 76.56 20.48 32.62 14.01 55.58 37.22 65.44 71.91 1.4 4.92.25 10.68-.21 16-1.94 22.28-4 44.55-6.19 66.81-.36 3.63-1.18 7.32-2.44 10.75-5.66 15.4-11.35 30.8-17.49 46.01-1.86 4.61-4.81 8.95-7.95 12.86-21.41 26.68-49.05 43.57-82.27 51.28-19.02 4.42-37.96 3.34-56.98-1.09-10.78-2.51-21.96-3.33-32.96-4.84-5.25-.72-10.52-1.27-15.78-1.93-.62-.08-1.26-.23-1.82-.5-20.97-10.15-42.09-19.98-62.83-30.57-21.09-10.77-33.91-28.07-38.64-51.46-3.31-16.39-5.21-32.86-4.79-49.57.05-2.13.66-4.36 1.49-6.34 3.62-8.72 4.99-17.93 6.26-27.17 2.38-17.21 4.46-34.46 7.01-51.65 1.53-10.31 7.19-18.92 12.8-27.4 7.95-12.02 18.57-21.27 31.44-27.6 14.52-7.14 29.28-13.81 44.09-20.33 7.32-3.2 11.36-3.27 24.42-2.34zm19.73 26.06c-18.97-.53-37.01 3.52-54.27 11.18-15.99 7.09-29.73 17.45-42.18 29.6-.93.91-1.56 2.25-2.03 3.51-9 24.32-17.97 48.65-26.9 72.99-.54 1.47-.99 3.04-1.11 4.6-1.2 15.17.93 29.93 7.13 43.79 13.89 31.06 35.04 56.34 62.63 76.17 6.75 4.85 14.62 6.93 22.9 5.84 8.7-1.14 16.05 1.48 22.82 6.59.92.69 1.89 1.55 2.95 1.76 5.09.99 10.19 2.29 15.33 2.56 29.35 1.55 57.61-3.53 84.6-15.1 13.2-5.66 24.22-14.19 32.16-26.46 8.17-12.63 16.64-25.07 24.86-37.67.78-1.19 1.23-2.99 1-4.37-1.24-7.69-.44-14.77 3.7-21.69 3.89-6.5 4.92-13.93 3.9-21.5-1.58-11.76-3.24-23.5-4.92-35.25-.79-5.55-.81-11.42-2.72-16.57-10.17-27.34-28.12-48.01-55.04-59.82-30.15-13.22-61.99-19.14-94.81-20.16z"/><path d="m247.17 234.08c-13.38 3.42-25.98 2.87-38.5-1.07-11.6-3.66-23.19-7.36-34.83-10.87-2.11-.63-2.8-1.59-2.96-3.69-.69-9.18-1.54-18.35-2.36-27.88.97.25 1.64.35 2.25.6 1.47.59 2.97 1.15 4.37 1.9 14.94 8.06 31.39 10.45 47.84 12.85 1.78.26 3.57.5 5.35.77 9.76 1.52 14.88 7.84 17.13 16.9.83 3.34 1.13 6.83 1.71 10.49z"/></svg>
