<svg xmlns="http://www.w3.org/2000/svg" viewBox="24 57 353 291"><path d="m368.47 122.79c-1.82 12.42-3.8 24.32-5.25 36.29-1.68 13.88-2.87 27.82-4.36 41.72-.15 1.39-.56 2.99-1.41 4.02-9.97 12-16.09 25.78-19.47 40.91-3.04 13.61-7.45 26.81-14.37 38.89-8.23 14.35-19.64 25.26-36.69 28.4-21.1 3.89-41.45 10.35-61.72 17.23-14.14 4.8-28.54 8.99-43.66 9.26-16.41.3-32.49-2.5-48.5-5.7-.6-.12-1.24-.36-1.71-.74-12.23-9.64-24.94-18.74-36.51-29.12-14.2-12.74-23.29-29.48-33.02-45.67-6.81-11.34-10.46-23.05-9.06-36.39 1.1-10.45-3.12-20.21-5.32-30.19-4.45-20.15-9.34-40.21-14.01-60.32-.31-1.32-.39-2.73-.39-4.09-.03-17.18.02-34.35-.06-51.53-.01-2.15.52-3.49 2.52-4.51 3.21-1.63 6.34-3.45 9.33-5.44 1.78-1.18 3.09-1 4.87-.01 13.49 7.55 27.17 14.79 40.52 22.58 5.51 3.21 11.11 4.59 17.37 4.85 38.95 1.58 77.9 3.14 116.83 5.21 7.62.41 15.14 2.97 22.68 4.61 9 1.96 17.97 4.07 26.98 5.96 1.58.33 3.41.25 4.97-.18 11.63-3.21 23.24-6.5 34.82-9.9 1.54-.45 2.98-1.49 4.24-2.53 1.88-1.54 3.62-3.27 5.33-5.01 8.57-8.7 18.74-10.86 30.62-8.77 5.85 1.02 8.93 3.06 9.71 9.08 1.33 10.47 3.14 20.89 4.72 31.09zm-55.19 40.88c-1.21-.44-2.19-.79-3.17-1.15-8.64-3.16-17.45-5.93-25.87-9.6-9.4-4.1-18.42-9.07-27.68-13.51-1.64-.79-3.63-1.22-5.45-1.2-22.78.23-45.56.89-68.33.78-15.85-.08-31.47-2.23-46.22-8.72-1.02-.45-2.68-.17-3.75.36-8.93 4.39-17.64 9.26-26.74 13.27-4.97 2.19-7.22 5.82-8.58 10.52-.61 2.13-1.35 4.33-1.38 6.51-.1 8.24.02 16.48.17 24.72.13 7.19-1.44 13.62-8.24 17.33-2.88 1.57-6.21 2.33-9.38 3.47.06.22.09.54.22.83 8.12 18.05 16.23 36.1 24.4 54.13.46 1.02 1.29 1.93 2.13 2.71 9.2 8.48 18.41 16.94 27.69 25.33 1.21 1.1 2.76 1.98 4.3 2.53 10.26 3.68 20.67 6.97 30.82 10.93 8.51 3.32 17.18 3.41 25.96 2.52 16.67-1.69 31.74-7.99 45.87-16.68 13.98-8.59 25.24-19.74 33.04-34.42 6.91-12.99 14.31-25.74 21.85-38.38 4.86-8.16 8.65-16.63 10.94-25.87 2.2-8.83 4.89-17.51 7.4-26.41z"/><path d="m154.88 200.39c12.52-3.33 24.57-6.53 36.62-9.73 4.09-1.09 8.18-2.16 12.28-3.23 11.26-2.93 21.42 0 30.61 6.42 6.31 4.4 9.28 11.13 10.52 18.58.16.98-.39 2.63-1.16 3.13-24.41 15.9-50.32 21.62-78.47 11.11-.9-.34-2.06-1.02-2.33-1.81-2.74-7.99-5.32-16.04-8.07-24.47z"/></svg>
